<svg xmlns="http://www.w3.org/2000/svg" width="27.188" height="27.188" viewBox="0 0 27.188 27.188">
  <g id="Icon_ionic-ios-arrow-dropdown" data-name="Icon ionic-ios-arrow-dropdown" transform="translate(-3.375 -3.375)">
    <path id="Path_5" data-name="Path 5" d="M10.327,14.815a1.509,1.509,0,0,0,0,1.92l5.863,6.708a1.074,1.074,0,0,0,1.63.042L23.6,16.875a1.5,1.5,0,0,0,.006-1.92,1.077,1.077,0,0,0-1.673,0l-4.962,5.611L12,14.808A1.077,1.077,0,0,0,10.327,14.815Z" transform="translate(0 -1.148)"/>
    <path id="Path_6" data-name="Path 6" d="M3.375,16.969A13.594,13.594,0,1,0,16.969,3.375,13.592,13.592,0,0,0,3.375,16.969ZM25.1,8.839A11.5,11.5,0,1,1,8.839,25.1,11.5,11.5,0,1,1,25.1,8.839Z"/>
  </g>
</svg>
