<svg xmlns="http://www.w3.org/2000/svg" width="31.518" height="172.755" viewBox="0 0 31.518 172.755">
  <path id="Icon_awesome-instagram" data-name="Icon awesome-instagram" d="M15.757,9.914a8.079,8.079,0,1,0,8.079,8.079A8.066,8.066,0,0,0,15.757,9.914Zm0,13.331a5.252,5.252,0,1,1,5.252-5.252,5.262,5.262,0,0,1-5.252,5.252ZM26.051,9.584A1.884,1.884,0,1,1,24.166,7.7,1.88,1.88,0,0,1,26.051,9.584ZM31.4,11.5a9.325,9.325,0,0,0-2.545-6.6,9.387,9.387,0,0,0-6.6-2.545c-2.6-.148-10.4-.148-13,0a9.373,9.373,0,0,0-6.6,2.538,9.356,9.356,0,0,0-2.545,6.6c-.148,2.6-.148,10.4,0,13a9.325,9.325,0,0,0,2.545,6.6,9.4,9.4,0,0,0,6.6,2.545c2.6.148,10.4.148,13,0a9.325,9.325,0,0,0,6.6-2.545,9.387,9.387,0,0,0,2.545-6.6c.148-2.6.148-10.392,0-12.994ZM28.041,27.281a5.318,5.318,0,0,1-3,3c-2.074.823-7,.633-9.288.633s-7.221.183-9.288-.633a5.318,5.318,0,0,1-3-3c-.823-2.074-.633-7-.633-9.288s-.183-7.221.633-9.288a5.318,5.318,0,0,1,3-3c2.074-.823,7-.633,9.288-.633s7.221-.183,9.288.633a5.318,5.318,0,0,1,3,3c.823,2.074.633,7,.633,9.288S28.863,25.214,28.041,27.281Z" transform="translate(0.005 -2.238)" fill="#fff"/>
  <path id="Icon_material-phone-iphone" data-name="Icon material-phone-iphone" d="M23.25,1.5h-12A3.751,3.751,0,0,0,7.5,5.25v25.5a3.751,3.751,0,0,0,3.75,3.75h12A3.751,3.751,0,0,0,27,30.75V5.25A3.751,3.751,0,0,0,23.25,1.5Zm-6,31.5a2.25,2.25,0,1,1,2.25-2.25A2.247,2.247,0,0,1,17.25,33ZM24,27H10.5V6H24Z" transform="translate(-1.652 69.255)" fill="#fff"/>
  <path id="Icon_material-location-on" data-name="Icon material-location-on" d="M17.936,3A10.428,10.428,0,0,0,7.5,13.436c0,7.827,10.436,19.381,10.436,19.381S28.371,21.262,28.371,13.436A10.428,10.428,0,0,0,17.936,3Zm0,14.163a3.727,3.727,0,1,1,3.727-3.727A3.728,3.728,0,0,1,17.936,17.163Z" transform="translate(-2.552 139.939)" fill="#f8f8f8"/>
</svg>
