<svg xmlns="http://www.w3.org/2000/svg" width="212.132" height="212.132" viewBox="0 0 212.132 212.132">
  <g id="Rectangle_15" data-name="Rectangle 15" transform="translate(106.066) rotate(45)" fill="#fff" stroke="#73ebe7" stroke-width="3">
    <rect width="150" height="150" rx="75" stroke="none"/>
    <rect x="1.5" y="1.5" width="147" height="147" rx="73.5" fill="none"/>
  </g>
  <path id="Icon_awesome-react" data-name="Icon awesome-react" d="M55.6,21.555q-1.077-.359-2.154-.678c.12-.492.226-.984.332-1.476,1.635-7.924.558-14.293-3.071-16.394-3.5-2.008-9.2.08-14.971,5.106-.572.492-1.13,1.01-1.662,1.529-.359-.346-.731-.691-1.1-1.024C26.924,3.246,20.861.986,17.232,3.1c-3.484,2.021-4.521,8.018-3.058,15.516.146.745.306,1.476.492,2.22-.851.239-1.689.505-2.473.784C5.092,24.081,0,27.964,0,31.979c0,4.148,5.425,8.31,12.8,10.836.6.2,1.2.4,1.808.572-.2.8-.372,1.582-.532,2.393-1.4,7.379-.306,13.23,3.178,15.237,3.59,2.074,9.626-.053,15.5-5.2.465-.412.931-.838,1.4-1.29.585.572,1.2,1.117,1.808,1.649,5.691,4.893,11.315,6.874,14.785,4.866,3.59-2.074,4.76-8.363,3.244-16.022q-.18-.878-.4-1.795c.425-.12.838-.253,1.25-.386,7.672-2.54,13.23-6.648,13.23-10.863,0-4.029-5.239-7.938-12.472-10.424ZM37.615,10.267c4.946-4.308,9.56-6,11.661-4.787,2.247,1.29,3.111,6.5,1.7,13.349-.093.452-.186.891-.306,1.33a68.066,68.066,0,0,0-8.948-1.409,67.178,67.178,0,0,0-5.664-7.06c.519-.492,1.024-.957,1.556-1.423ZM22.231,38.88c.678,1.157,1.369,2.314,2.1,3.444a60.208,60.208,0,0,1-6.169-1A62.111,62.111,0,0,1,20.33,35.41c.612,1.17,1.237,2.327,1.9,3.47Zm-4.029-16c1.915-.425,3.949-.771,6.063-1.037-.7,1.1-1.4,2.234-2.048,3.377s-1.29,2.287-1.888,3.457c-.838-1.981-1.542-3.922-2.127-5.8Zm3.643,9.161c.878-1.835,1.835-3.63,2.845-5.4s2.1-3.484,3.244-5.172c1.994-.146,4.029-.226,6.1-.226s4.122.08,6.1.226q1.7,2.513,3.231,5.146t2.885,5.372q-1.336,2.752-2.872,5.425C42.374,39.186,41.3,40.9,40.167,42.6c-1.981.146-4.042.213-6.129.213s-4.108-.066-6.063-.186Q26.24,40.1,24.7,37.444c-1.024-1.768-1.968-3.563-2.859-5.4Zm24.013,6.808c.678-1.17,1.316-2.353,1.941-3.55a61.722,61.722,0,0,1,2.247,5.89A58.4,58.4,0,0,1,43.8,42.257C44.515,41.14,45.193,40,45.858,38.853Zm1.915-10.171c-.625-1.17-1.263-2.34-1.928-3.484s-1.33-2.247-2.034-3.351a61.186,61.186,0,0,1,6.1,1.064,58.843,58.843,0,0,1-2.141,5.77ZM34.064,13.724A58.386,58.386,0,0,1,38,18.484c-2.633-.12-5.279-.12-7.911,0C31.392,16.768,32.735,15.173,34.064,13.724ZM18.641,5.573c2.234-1.3,7.193.558,12.419,5.185.332.293.665.612,1.01.931a67.551,67.551,0,0,0-5.7,7.06,70.088,70.088,0,0,0-8.935,1.383c-.173-.678-.319-1.369-.465-2.061-1.25-6.435-.425-11.288,1.675-12.5ZM15.384,40.622c-.558-.16-1.1-.332-1.649-.519a27.118,27.118,0,0,1-8.377-4.148,5.966,5.966,0,0,1-2.5-3.976c0-2.433,4.2-5.544,10.265-7.659.758-.266,1.529-.505,2.3-.731a70.7,70.7,0,0,0,3.258,8.456,72.68,72.68,0,0,0-3.3,8.576Zm15.5,13.03a24.336,24.336,0,0,1-7.5,4.694,5.885,5.885,0,0,1-4.694.173C16.58,57.295,15.7,52.6,16.9,46.286c.146-.745.306-1.489.492-2.22a66.516,66.516,0,0,0,9.028,1.3,70.167,70.167,0,0,0,5.744,7.1C31.738,52.881,31.312,53.279,30.887,53.652Zm3.258-3.231c-1.356-1.463-2.712-3.085-4.029-4.826,1.276.053,2.593.08,3.922.08,1.369,0,2.712-.027,4.042-.093a57.339,57.339,0,0,1-3.936,4.84ZM51.522,54.41a5.909,5.909,0,0,1-2.194,4.162c-2.114,1.223-6.621-.372-11.488-4.547-.558-.479-1.117-1-1.689-1.529a65.773,65.773,0,0,0,5.611-7.127,65.545,65.545,0,0,0,9.068-1.4c.133.545.253,1.09.359,1.622a24.238,24.238,0,0,1,.332,8.815Zm2.42-14.293c-.372.12-.745.239-1.13.346a67.543,67.543,0,0,0-3.39-8.483,67.206,67.206,0,0,0,3.258-8.363c.691.2,1.356.412,1.994.625,6.2,2.127,10.544,5.292,10.544,7.712,0,2.606-4.64,5.97-11.275,8.164Zm-19.9-1.994a6.09,6.09,0,1,0-6.09-6.09A6.089,6.089,0,0,0,34.038,38.122Z" transform="translate(72.066 73.747)"/>
</svg>
