<svg xmlns="http://www.w3.org/2000/svg" width="29" height="29" viewBox="0 0 29 29">
  <g id="Group_7" data-name="Group 7" transform="translate(-74 -170)">
    <rect id="Rectangle_21" data-name="Rectangle 21" width="29" height="29" rx="3" transform="translate(74 170)" fill="#fff"/>
    <path id="Icon_simple-gmail" data-name="Icon simple-gmail" d="M25.263,6.022V21.238a1.523,1.523,0,0,1-1.579,1.522H22.105V8.95l-9.474,6.556L3.158,8.95V22.759H1.579A1.523,1.523,0,0,1,0,21.238V6.022A1.485,1.485,0,0,1,.454,4.938,1.6,1.6,0,0,1,1.579,4.5h.526l10.526,7.354L23.158,4.5h.526a1.6,1.6,0,0,1,1.125.438A1.481,1.481,0,0,1,25.263,6.022Z" transform="translate(75.737 171.227)" fill="#60676d"/>
  </g>
</svg>
