<svg xmlns="http://www.w3.org/2000/svg" width="212.132" height="212.132" viewBox="0 0 212.132 212.132">
  <g id="Rectangle_16" data-name="Rectangle 16" transform="translate(106.066) rotate(45)" fill="#fff" stroke="#73ebe7" stroke-width="3">
    <rect width="150" height="150" rx="75" stroke="none"/>
    <rect x="1.5" y="1.5" width="147" height="147" rx="73.5" fill="none"/>
  </g>
  <path id="Icon_map-surfing" data-name="Icon map-surfing" d="M12.93,54.117c20.791,8.789,36.582,13.915,58.824,20.961a.832.832,0,0,0,.945-.722.88.88,0,0,0-.7-.987A643.921,643.921,0,0,1,3.186,47.159a1.255,1.255,0,0,0-1.647.672,1.2,1.2,0,0,0,.648,1.6c1.56.7,3.1,1.39,4.592,2.042L1.836,55.262a1.742,1.742,0,0,0,.508,2.448,1.938,1.938,0,0,0,2.085-.019ZM70.315,31.932,54.132,16.993l.358.036A5.967,5.967,0,1,0,49.6,14.448L38.629,10.514,32.7,1.9a2.828,2.828,0,0,0-5.113,1.356,2.939,2.939,0,0,0,.4,1.814l6.041,8.807a2.941,2.941,0,0,0,1.052.846L42.1,17.489l-11.51,5.919a6.267,6.267,0,0,0-3.066,4.422l.053,10.587L16.927,43.241a3.725,3.725,0,0,0-2.1,3.207,3.681,3.681,0,0,0,3.523,3.841,3.534,3.534,0,0,0,1.771-.372L33.146,44A3.656,3.656,0,0,0,35,41.516l-.017-6.588,9.042,8.139L42.363,56.928l-.017.265a3.68,3.68,0,0,0,7.325.652l1.946-15.819.017-.212A3.708,3.708,0,0,0,50.5,39L42.12,31.511l12.619-6.236L66.448,36.108a2.9,2.9,0,0,0,2.016.827,2.848,2.848,0,0,0,2.823-2.871,2.916,2.916,0,0,0-.971-2.132Z" transform="translate(68.626 68.538)"/>
</svg>
